<svg width="1653" height="993" xmlns="http://www.w3.org/2000/svg" xmlns:xlink="http://www.w3.org/1999/xlink" xml:space="preserve" overflow="hidden"><defs><clipPath id="clip0"><rect x="2280" y="783" width="1653" height="993"/></clipPath><clipPath id="clip1"><rect x="2280" y="783" width="1650" height="990"/></clipPath><clipPath id="clip2"><rect x="2863" y="1148" width="488" height="489"/></clipPath><clipPath id="clip3"><rect x="2863" y="1148" width="488" height="489"/></clipPath><clipPath id="clip4"><rect x="2280" y="783" width="1650" height="990"/></clipPath><clipPath id="clip5"><rect x="2280" y="783" width="1650" height="990"/></clipPath><clipPath id="clip6"><rect x="2280" y="783" width="1650" height="990"/></clipPath><clipPath id="clip7"><rect x="2280" y="783" width="1650" height="990"/></clipPath><clipPath id="clip8"><rect x="2280" y="783" width="1650" height="990"/></clipPath><clipPath id="clip9"><rect x="2280" y="783" width="1650" height="990"/></clipPath><clipPath id="clip10"><rect x="2280" y="783" width="1650" height="990"/></clipPath><clipPath id="clip11"><rect x="2280" y="783" width="1650" height="990"/></clipPath><clipPath id="clip12"><rect x="2280" y="783" width="1650" height="990"/></clipPath><clipPath id="clip13"><rect x="2280" y="783" width="1650" height="990"/></clipPath><clipPath id="clip14"><rect x="2280" y="783" width="1650" height="990"/></clipPath><clipPath id="clip15"><rect x="2280" y="783" width="1650" height="990"/></clipPath><clipPath id="clip16"><rect x="2280" y="783" width="1650" height="990"/></clipPath><clipPath id="clip17"><rect x="2280" y="783" width="1650" height="990"/></clipPath><clipPath id="clip18"><rect x="2280" y="783" width="1650" height="990"/></clipPath><clipPath id="clip19"><rect x="2280" y="783" width="1650" height="990"/></clipPath><clipPath id="clip20"><rect x="2280" y="783" width="1650" height="990"/></clipPath></defs><g clip-path="url(#clip0)" transform="translate(-2280 -783)"><rect x="2281" y="784" width="1650" height="990" fill="#FFFFFF"/><g clip-path="url(#clip1)"><path d="M3105.6 1330.54 3158.6 1360.54M3158.6 1360.54 3158.6 1421.55M3158.6 1421.55 3105.6 1451.55M3105.6 1451.55 3053.6 1421.55M3053.6 1421.55 3053.6 1360.54M3053.6 1360.54 3105.6 1330.54M3105.6 1269.54 3210.61 1330.54M3210.61 1330.54 3210.61 1451.55M3210.61 1451.55 3105.6 1512.55M3105.6 1512.55 3000.6 1451.55M3000.6 1451.55 3000.6 1330.54M3000.6 1330.54 3105.6 1269.54M3105.6 1208.54 3263.61 1299.54M3263.61 1299.54 3263.61 1481.55M3263.61 1481.55 3105.6 1572.55M3105.6 1572.55 2948.6 1481.55M2948.6 1481.55 2948.6 1299.54M2948.6 1299.54 3105.6 1208.54M3105.6 1148.5 3315.5 1269.54M3315.5 1269.54 3315.5 1512.55M3315.5 1512.55 3105.6 1633.5M3105.6 1633.5 2895.5 1512.55M2895.5 1512.55 2895.5 1269.54M2895.5 1269.54 3105.6 1148.5" stroke="#D9D9D9" stroke-width="3.4375" stroke-linejoin="round" stroke-miterlimit="10" fill="none"/></g><g clip-path="url(#clip2)"><path d="M3001 1330.04 3106.1 1270 3263 1300.04 3184.1 1436.05 3106.1 1500 3006.1 1449.05 3001 1330.04" stroke="#4472C4" stroke-width="10.3125" stroke-linecap="round" stroke-linejoin="round" stroke-miterlimit="10" fill="none"/></g><g clip-path="url(#clip3)"><path d="M3027 1345.04 3106.1 1209 3184.1 1345.04 3316 1512 3106.1 1482.05 3027 1436.05 3027 1345.04" stroke="#ED7D31" stroke-width="10.3125" stroke-linecap="round" stroke-linejoin="round" stroke-miterlimit="10" fill="none"/></g><g clip-path="url(#clip4)"><text fill="#595959" font-family="Calibri,Calibri_MSFontService,sans-serif" font-weight="400" font-size="41" transform="matrix(1 0 0 1 3043.08 1405)">0</text></g><g clip-path="url(#clip5)"><text fill="#595959" font-family="Calibri,Calibri_MSFontService,sans-serif" font-weight="400" font-size="41" transform="matrix(1 0 0 1 3022.18 1344)">10</text></g><g clip-path="url(#clip6)"><text fill="#595959" font-family="Calibri,Calibri_MSFontService,sans-serif" font-weight="400" font-size="41" transform="matrix(1 0 0 1 3022.18 1283)">20</text></g><g clip-path="url(#clip7)"><text fill="#595959" font-family="Calibri,Calibri_MSFontService,sans-serif" font-weight="400" font-size="41" transform="matrix(1 0 0 1 3022.18 1223)">30</text></g><g clip-path="url(#clip8)"><text fill="#595959" font-family="Calibri,Calibri_MSFontService,sans-serif" font-weight="400" font-size="41" transform="matrix(1 0 0 1 3022.18 1162)">40</text></g><g clip-path="url(#clip9)"><text fill="#595959" font-family="Calibri,Calibri_MSFontService,sans-serif" font-weight="400" font-size="41" transform="matrix(1 0 0 1 2955.16 1123)">Schnittstelle gRPC</text></g><g clip-path="url(#clip10)"><text fill="#595959" font-family="Calibri,Calibri_MSFontService,sans-serif" font-weight="400" font-size="41" transform="matrix(1 0 0 1 3324.32 1276)">Thales Framework</text></g><g clip-path="url(#clip11)"><text fill="#595959" font-family="Calibri,Calibri_MSFontService,sans-serif" font-weight="400" font-size="41" transform="matrix(1 0 0 1 3324.32 1529)">Custum API</text></g><g clip-path="url(#clip12)"><text fill="#595959" font-family="Calibri,Calibri_MSFontService,sans-serif" font-weight="400" font-size="41" transform="matrix(1 0 0 1 3015.2 1682)">Fahrphysik</text></g><g clip-path="url(#clip13)"><text fill="#595959" font-family="Calibri,Calibri_MSFontService,sans-serif" font-weight="400" font-size="41" transform="matrix(1 0 0 1 2974.17 1733)">Beschleunigung</text></g><g clip-path="url(#clip14)"><text fill="#595959" font-family="Calibri,Calibri_MSFontService,sans-serif" font-weight="400" font-size="41" transform="matrix(1 0 0 1 2555.68 1529)">Fahrphysik Lenkung</text></g><g clip-path="url(#clip15)"><text fill="#595959" font-family="Calibri,Calibri_MSFontService,sans-serif" font-weight="400" font-size="41" transform="matrix(1 0 0 1 2524.08 1276)">Fahrphysik Steuerung</text></g><g clip-path="url(#clip16)"><text fill="#595959" font-family="Calibri,Calibri_MSFontService,sans-serif" font-weight="400" font-size="64" transform="matrix(1 0 0 1 2582.54 879)">Entrittwahrscheinlichkeit  und Tragweite</text></g><g clip-path="url(#clip17)"><path d="M2443 970 2531 970" stroke="#4472C4" stroke-width="10.3125" stroke-linecap="round" stroke-linejoin="round" stroke-miterlimit="10" fill="none" fill-rule="evenodd"/></g><g clip-path="url(#clip18)"><text fill="#595959" font-family="Calibri,Calibri_MSFontService,sans-serif" font-weight="400" font-size="41" transform="matrix(1 0 0 1 2540.29 981)">Tragweite bei Eintritt in Stunden</text></g><g clip-path="url(#clip19)"><path d="M3163 970 3251 970" stroke="#ED7D31" stroke-width="10.3125" stroke-linecap="round" stroke-linejoin="round" stroke-miterlimit="10" fill="none" fill-rule="evenodd"/></g><g clip-path="url(#clip20)"><text fill="#595959" font-family="Calibri,Calibri_MSFontService,sans-serif" font-weight="400" font-size="41" transform="matrix(1 0 0 1 3259.82 981)">Eintrittswahrscheinlichkeit in %</text></g><rect x="2281.5" y="784.5" width="1650" height="990" stroke="#D9D9D9" stroke-width="3.4375" stroke-linejoin="round" stroke-miterlimit="10" fill="none"/></g></svg>